<svg xmlns="http://www.w3.org/2000/svg" viewBox="0 0 1066.6667 640">
      <defs>
        <clipPath id="a" clipPathUnits="userSpaceOnUse">
          <path d="M0 480h800V0H0z" />
        </clipPath>
      </defs>
      <path
        class="first-color"
        d="M426.6667 213.3333h213.332V.0013h-213.332z"
      />
      <g clip-path="url(#a)" transform="matrix(1.33333 0 0 -1.33333 0 640)">
        <path
          class="first-shade"
          d="M400 438.75c-21.367 0-38.75-17.383-38.75-38.75s17.383-38.75 38.75-38.75 38.75 17.383 38.75 38.75-17.383 38.75-38.75 38.75m0-80c-22.744 0-41.25 18.506-41.25 41.25s18.506 41.25 41.25 41.25 41.25-18.506 41.25-41.25-18.506-41.25-41.25-41.25"
        />
        <path class="third-color" d="M320 320H160v160h160z" />
        <path class="fourth-color" d="M800 160H640v160h160z" />
        <path class="first-shade" d="M800 240H640v80h160z" />
        <path class="fourth-color" d="M400 320h-80v80h80zM480 400h-80v80h80z" />
        <path class="second-shade" d="M640 320H480v160h160z" />
        <path
          class="second-color"
          d="M480 400v-80h80c0 44.183-35.818 80-80 80"
        />
        <path
          class="fourth-color"
          d="M560 400v-80h80c0 44.183-35.818 80-80 80"
        />
        <path class="first-color" d="M640 400H480v80h160z" />
        <path
          class="second-color"
          d="M241.25 320h-2.5v160h2.5zM201.25 320h-2.5v160h2.5zM281.25 320h-2.5v160h2.5zM301.25 320h-2.5v160h2.5zM261.25 320h-2.5v160h2.5zM221.25 320h-2.5v160h2.5zM181.25 320h-2.5v160h2.5z"
        />
        <path class="fourth-color" d="M320 160H160v160h160z" />
        <path
          class="first-shade"
          d="M160 320V160h160c0 88.365-71.635 160-160 160"
        />
        <path
          class="second-color"
          d="M160 240v-80h80c0 44.183-35.818 80-80 80M480 160H320v160h160z"
        />
        <path class="second-shade" d="M480 160l-80 80-80-80z" />
        <path class="first-shade" d="M320 320l80-80 80 80z" />
        <path class="first-color" d="M480 320l-80-80 80-80z" />
        <path class="third-color" d="M640 160H480v160h160z" />
        <path
          class="first-shade"
          d="M530 280c0-5.523-4.478-10-10-10s-10 4.477-10 10 4.478 10 10 10 10-4.477 10-10"
        />
        <path
          class="second-color"
          d="M600 450c-5.522 0-10-4.477-10-10 0-5.522 4.478-10 10-10s10 4.478 10 10c0 5.523-4.478 10-10 10M630 440c0-5.522 4.478-10 10-10v20c-5.522 0-10-4.477-10-10M560 450c-5.522 0-10-4.477-10-10 0-5.522 4.478-10 10-10s10 4.478 10 10c0 5.523-4.478 10-10 10M520 450c-5.522 0-10-4.477-10-10 0-5.522 4.478-10 10-10s10 4.478 10 10c0 5.523-4.478 10-10 10M480 450v-20c5.522 0 10 4.478 10 10 0 5.523-4.478 10-10 10"
        />
        <path
          class="first-shade"
          d="M570 280c0-5.523-4.478-10-10-10s-10 4.477-10 10 4.478 10 10 10 10-4.477 10-10M610 280c0-5.523-4.478-10-10-10s-10 4.477-10 10 4.478 10 10 10 10-4.477 10-10M530 240c0-5.522-4.478-10-10-10s-10 4.478-10 10c0 5.523 4.478 10 10 10s10-4.477 10-10M570 240c0-5.522-4.478-10-10-10s-10 4.478-10 10c0 5.523 4.478 10 10 10s10-4.477 10-10M610 240c0-5.522-4.478-10-10-10s-10 4.478-10 10c0 5.523 4.478 10 10 10s10-4.477 10-10M530 200c0-5.522-4.478-10-10-10s-10 4.478-10 10 4.478 10 10 10 10-4.478 10-10M570 200c0-5.522-4.478-10-10-10s-10 4.478-10 10 4.478 10 10 10 10-4.478 10-10M610 200c0-5.522-4.478-10-10-10s-10 4.478-10 10 4.478 10 10 10 10-4.478 10-10"
        />
        <path class="second-shade" d="M320 0H160v160h160z" />
        <path
          class="second-color"
          d="M210 120c0-5.522-4.477-10-10-10s-10 4.478-10 10 4.477 10 10 10 10-4.478 10-10M250 120c0-5.522-4.477-10-10-10s-10 4.478-10 10 4.477 10 10 10 10-4.478 10-10"
        />
        <path
          class="first-color"
          d="M290 120c0-5.522-4.477-10-10-10s-10 4.478-10 10 4.477 10 10 10 10-4.478 10-10"
        />
        <path
          class="second-color"
          d="M210 80c0-5.522-4.477-10-10-10s-10 4.478-10 10 4.477 10 10 10 10-4.478 10-10"
        />
        <path
          class="first-color"
          d="M250 80c0-5.522-4.477-10-10-10s-10 4.478-10 10 4.477 10 10 10 10-4.478 10-10"
        />
        <path
          class="second-color"
          d="M290 80c0-5.522-4.477-10-10-10s-10 4.478-10 10 4.477 10 10 10 10-4.478 10-10"
        />
        <path
          class="first-color"
          d="M210 40c0-5.522-4.477-10-10-10s-10 4.478-10 10 4.477 10 10 10 10-4.478 10-10"
        />
        <path
          class="second-color"
          d="M250 40c0-5.522-4.477-10-10-10s-10 4.478-10 10 4.477 10 10 10 10-4.478 10-10M290 40c0-5.522-4.477-10-10-10s-10 4.478-10 10 4.477 10 10 10 10-4.478 10-10M160 320H0v160h160z"
        />
        <path
          class="second-shade"
          d="M80 400c0-44.183 35.818-80 80-80v160c-44.182 0-80-35.817-80-80"
        />
        <path
          class="first-color"
          d="M80 400c0 44.183-35.818 80-80 80V320c44.182 0 80 35.817 80 80"
        />
        <path class="fourth-color" d="M480 0H320v160h160z" />
        <path
          class="first-shade"
          d="M400 80c0 44.183-35.818 80-80 80V0c44.182 0 80 35.817 80 80"
        />
        <path
          class="second-color"
          d="M400 80c0-44.183 35.818-80 80-80v160c-44.182 0-80-35.817-80-80"
        />
        <path class="third-color" d="M400 80h80v80c-44.182 0-80-35.817-80-80" />
        <path class="first-shade" d="M640 0H480v160h160z" />
        <path class="first-color" d="M610 30H510v100h100z" />
        <path
          class="second-color"
          d="M590 80c0-16.568-13.432-30-30-30-16.568 0-30 13.432-30 30 0 16.568 13.432 30 30 30 16.568 0 30-13.432 30-30M160 0H0v160h160z"
        />
        <path
          class="first-color"
          d="M150 80c0-38.66-31.34-70-70-70S10 41.34 10 80s31.34 70 70 70 70-31.34 70-70"
        />
        <path
          class="second-shade"
          d="M110 80c0-16.568-13.432-30-30-30-16.568 0-30 13.432-30 30 0 16.568 13.432 30 30 30 16.568 0 30-13.432 30-30"
        />
        <path class="third-color" d="M160 160L0 0h160z" />
        <path class="first-color" d="M800 320H640v160h160z" />
        <path
          class="second-color"
          d="M800 480H640V320c88.365 0 160 71.635 160 160"
        />
        <path
          class="fourth-color"
          d="M640 398.75v2.5c43.428 0 78.75 35.322 78.75 78.75h2.5c0-44.805-36.445-81.25-81.25-81.25M640 438.75v2.5c21.367 0 38.75 17.383 38.75 38.75h2.5c0-22.744-18.506-41.25-41.25-41.25"
        />
        <path
          class="fourth-color"
          d="M640 358.75v2.5c65.479 0 118.75 53.271 118.75 118.75h2.5c0-66.855-54.395-121.25-121.25-121.25"
        />
        <path class="second-shade" d="M800 0H640v160h160z" />
        <path
          class="third-color"
          d="M700 120c0-11.046-8.954-20-20-20s-20 8.954-20 20 8.954 20 20 20 20-8.954 20-20"
        />
        <path
          class="first-shade"
          d="M760 120c0-11.046-8.954-20-20-20s-20 8.954-20 20 8.954 20 20 20 20-8.954 20-20"
        />
        <path
          class="third-color"
          d="M780 120c0-11.046 8.955-20 20-20v40c-11.045 0-20-8.954-20-20"
        />
        <path
          class="first-shade"
          d="M740 40c0 11.046 8.954 20 20 20s20-8.954 20-20-8.954-20-20-20-20 8.954-20 20"
        />
        <path
          class="third-color"
          d="M680 40c0 11.046 8.954 20 20 20s20-8.954 20-20-8.954-20-20-20-20 8.954-20 20"
        />
        <path
          class="first-shade"
          d="M660 40c0 11.046-8.955 20-20 20V20c11.045 0 20 8.954 20 20"
        />
        <path class="fourth-color" d="M160 160H0v160h160z" />
        <path class="first-shade" d="M80 240H0v80h80zM160 160H80v80h80z" />
        <path class="third-color" d="M0 240l80-80v80zM160 240l-80 80v-80z" />
        <path
          class="first-shade"
          d="M720 240c-22.091 0-40-17.908-40-40s17.909-40 40-40 40 17.908 40 40-17.909 40-40 40m0-2.5c20.678 0 37.5-16.822 37.5-37.5s-16.822-37.5-37.5-37.5-37.5 16.822-37.5 37.5 16.822 37.5 37.5 37.5"
        />
        <path
          class="second-color"
          d="M720 320c-22.091 0-40-17.908-40-40s17.909-40 40-40 40 17.908 40 40-17.909 40-40 40m0-2.5c20.678 0 37.5-16.822 37.5-37.5s-16.822-37.5-37.5-37.5-37.5 16.822-37.5 37.5 16.822 37.5 37.5 37.5M800 242.5c-20.678 0-37.5 16.822-37.5 37.5s16.822 37.5 37.5 37.5v2.5c-22.091 0-40-17.908-40-40s17.909-40 40-40z"
        />
        <path
          class="first-shade"
          d="M800 162.5c-20.678 0-37.5 16.822-37.5 37.5s16.822 37.5 37.5 37.5v2.5c-22.091 0-40-17.908-40-40s17.909-40 40-40zM640 237.5c20.678 0 37.5-16.822 37.5-37.5s-16.822-37.5-37.5-37.5V160c22.091 0 40 17.908 40 40s-17.909 40-40 40z"
        />
        <path
          class="second-color"
          d="M640 317.5c20.678 0 37.5-16.822 37.5-37.5s-16.822-37.5-37.5-37.5V240c22.091 0 40 17.908 40 40s-17.909 40-40 40z"
        />
      </g>
    </svg>

